<svg height="502.09495pt" viewBox="0 0 502.09495 502.09495" width="502.09495pt" xmlns="http://www.w3.org/2000/svg"><path d="m426.382812 75.710938c-62.265624-64.46875-154.472656-90.324219-241.179687-67.628907-86.710937 22.695313-154.425781 90.410157-177.121094 177.121094-22.695312 86.707031 3.160157 178.914063 67.628907 241.179687 62.265624 64.46875 154.472656 90.324219 241.183593 67.628907 86.707031-22.695313 154.421875-90.410157 177.117188-177.117188 22.695312-86.710937-3.160157-178.917969-67.628907-241.183593zm-5.792968 333.601562-73.695313-73.703125c42.871094-48.203125 42.871094-120.863281 0-169.066406l73.695313-73.695313c83.273437 89.054688 83.273437 227.410156 0 316.464844zm-248.695313-79.128906c-37.621093-37.75-43.351562-96.8125-13.6875-141.089844 29.667969-44.277344 86.472657-61.445312 135.695313-41.007812s77.160156 72.789062 66.742187 125.058593c-10.421875 52.265625-56.300781 89.902344-109.597656 89.902344-29.71875.085937-58.234375-11.75-79.152344-32.863281zm237.386719-248.679688-73.699219 73.695313c-48.203125-42.875-120.867187-42.875-169.070312 0l-73.695313-73.695313c89.054688-83.273437 227.410156-83.273437 316.464844 0zm-327.777344 11.3125 73.695313 73.703125c-42.867188 48.203125-42.867188 120.863281 0 169.0625l-73.695313 73.699219c-83.273437-89.054688-83.273437-227.410156 0-316.464844zm11.3125 327.773438 73.695313-73.695313c48.203125 42.875 120.867187 42.875 169.070312 0l73.699219 73.695313c-89.054688 83.273437-227.410156 83.273437-316.464844 0zm0 0"/></svg>