<svg id="Layer_1" enable-background="new 0 0 512.299 512.299" height="512" viewBox="0 0 512.299 512.299" width="512" xmlns="http://www.w3.org/2000/svg"><g><path d="m474.107 325.167c-5 0-9.774.978-14.148 2.755-2.702 1.098-5.651-.907-5.651-3.824v-64.035h-198.232v187.82c0 6.136 4.974 11.11 11.11 11.11h50.274c2.692 0 4.638 2.53 3.99 5.144-.745 3.009-1.143 6.158-1.143 9.402 0 21.325 17.046 38.612 38.073 38.612s38.073-17.287 38.073-38.612c0-3.244-.398-6.392-1.143-9.402-.647-2.613 1.298-5.144 3.99-5.144h43.897c6.136 0 11.11-4.974 11.11-11.11v-44.423c0-2.917 2.949-4.922 5.651-3.824 4.374 1.777 9.148 2.755 14.148 2.755 21.027 0 38.073-17.287 38.073-38.612.001-21.325-17.045-38.612-38.072-38.612z" fill="#ff9d21"/><path d="m474.107 325.167c-5 0-9.774.978-14.148 2.755-2.702 1.098-5.651-.907-5.651-3.824v-64.035h-95.949v252.087c.007 0 .015.001.022.001 21.027 0 38.073-17.287 38.073-38.612 0-3.244-.398-6.393-1.143-9.402-.647-2.613 1.298-5.144 3.99-5.144h43.897c6.136 0 11.11-4.974 11.11-11.11v-44.423c0-2.917 2.949-4.922 5.651-3.824 4.374 1.777 9.148 2.755 14.148 2.755 21.027 0 38.073-17.287 38.073-38.612s-17.046-38.612-38.073-38.612z" fill="#ff6b6b"/><path d="m472.438 120.172c-4.413 0-8.656.732-12.622 2.078-2.7.916-5.509-1.031-5.509-3.882v-46.397c0-5.986-4.853-10.839-10.839-10.839h-43.137c-2.884 0-4.912-2.898-3.855-5.582 1.823-4.628 2.828-9.677 2.828-14.965 0-22.326-17.847-40.425-39.861-40.425s-39.861 18.099-39.861 40.425c0 5.288 1.005 10.337 2.828 14.965 1.057 2.684-.97 5.582-3.855 5.582h-62.479v198.93h59.568c2.836 0 4.788 2.782 3.893 5.473-1.348 4.05-2.081 8.387-2.081 12.898 0 22.326 17.847 40.425 39.861 40.425s39.861-18.099 39.861-40.425c0-4.512-.734-8.848-2.081-12.898-.895-2.69 1.058-5.473 3.893-5.473h55.317v-57.236c0-2.851 2.809-4.798 5.509-3.882 3.966 1.346 8.209 2.078 12.622 2.078 22.015 0 39.861-18.099 39.861-40.425s-17.846-40.425-39.861-40.425z" fill="#ff1f3d"/><path d="m472.438 120.172c-4.413 0-8.656.732-12.622 2.078-2.7.916-5.509-1.031-5.509-3.882v-46.396c0-5.986-4.853-10.839-10.839-10.839h-43.137c-2.885 0-4.912-2.898-3.855-5.582 1.823-4.628 2.828-9.677 2.828-14.965 0-22.326-17.846-40.425-39.861-40.425-.364 0-.724.018-1.085.028v318.644c21.532-.561 38.821-18.426 38.821-40.398 0-4.512-.734-8.848-2.081-12.898-.895-2.69 1.058-5.473 3.893-5.473h55.317v-57.236c0-2.851 2.809-4.798 5.509-3.882 3.966 1.346 8.209 2.078 12.622 2.078 22.015 0 39.861-18.099 39.861-40.425-.001-22.328-17.847-40.427-39.862-40.427z" fill="#b10f61"/><path d="m193.888 282.268c0-5.863-1.238-11.431-3.461-16.455-1.199-2.71.865-5.751 3.828-5.751h61.82v-61.289c0-3.242 3.535-5.163 6.314-3.494 5.918 3.555 12.824 5.597 20.201 5.597 21.935 0 39.717-18.033 39.717-40.279s-17.782-40.279-39.717-40.279c-7.377 0-14.283 2.042-20.201 5.597-2.779 1.669-6.314-.253-6.314-3.494v-61.289h-61.23c-2.892 0-4.922-2.913-3.849-5.598 1.864-4.665 2.891-9.763 2.891-15.106 0-22.245-17.782-40.279-39.717-40.279s-39.717 18.033-39.717 40.279c0 5.343 1.028 10.441 2.891 15.106 1.073 2.686-.957 5.598-3.849 5.598h-44.506c-6.155 0-11.145 4.99-11.145 11.145v46.243c0 2.854-2.812 4.8-5.514 3.88-3.962-1.349-8.202-2.083-12.613-2.083-21.935.002-39.717 18.035-39.717 40.28s17.782 40.279 39.717 40.279c4.411 0 8.651-.734 12.613-2.083 2.701-.92 5.514 1.027 5.514 3.88v46.243c0 6.155 4.99 11.145 11.145 11.145h45.097c2.964 0 5.028 3.041 3.828 5.751-2.223 5.024-3.461 10.592-3.461 16.455 0 22.245 17.782 40.279 39.717 40.279s39.718-18.032 39.718-40.278z" fill="#ace233"/><path d="m282.59 120.305c-7.377 0-14.283 2.042-20.201 5.597-2.779 1.669-6.314-.253-6.314-3.494v-61.289h-61.23c-2.892 0-4.922-2.913-3.849-5.598 1.864-4.665 2.891-9.763 2.891-15.106 0-22.063-17.495-39.974-39.182-40.265v322.37c21.688-.292 39.182-18.202 39.182-40.265 0-5.863-1.238-11.431-3.461-16.455-1.199-2.71.865-5.751 3.828-5.751h61.82v-61.289c0-3.242 3.535-5.163 6.314-3.494 5.918 3.555 12.824 5.597 20.201 5.597 21.935 0 39.717-18.033 39.717-40.279.001-22.246-17.781-40.279-39.716-40.279z" fill="#00d16c"/></g></svg>