<svg id="Layer_1" enable-background="new 0 0 512.022 512.022" height="512" viewBox="0 0 512.022 512.022" width="512" xmlns="http://www.w3.org/2000/svg"><g><path d="m183.036 243.18h49.113c3.75 0 6.791-3.04 6.791-6.791v-49.896c-.163-15.003 17.426-22.966 28.43-12.985 16.305 14.894 42.244 2.679 42.16-19.4.085-22.079-25.857-34.294-42.161-19.4-11.012 9.969-28.577 2.038-28.428-12.979v-49.902c0-3.75-3.04-6.791-6.791-6.791h-48.119c-13.351.214-21.787-14.309-15.016-25.665 10.192-16.807-2.065-39.546-21.691-39.37-19.452-.172-31.741 22.211-21.888 39.029 6.924 11.478-1.17 26.014-14.423 26.006h-42.569c-3.75 0-6.791 3.04-6.791 6.791v43.68c0 4.688-1.746 9.28-5.11 12.546-5.332 5.177-13.16 6.229-19.518 3.028-2.144-1.079-4.384-1.984-6.739-2.443-16.131-3.142-30.282 9.504-30.282 25.471 0 15.968 14.152 28.614 30.285 25.47 2.356-.459 4.595-1.364 6.739-2.444 6.357-3.2 14.185-2.147 19.517 3.03 3.363 3.265 5.109 7.855 5.109 12.543v43.682c0 3.75 3.04 6.791 6.791 6.791h43.168c13.682-.222 22.073 14.967 14.628 26.297-11.201 16.75.958 40.513 21.085 40.339 20.124.174 32.288-23.593 21.084-40.339-7.435-11.351.913-26.493 14.626-26.298z"/><path d="m402.88 455.329h40.542c3.75 0 6.791-3.04 6.791-6.791v-42.251c0-4.883 1.932-9.638 5.56-12.907 5.705-5.142 13.869-5.775 20.168-1.996 1.763 1.057 3.588 2.029 5.563 2.6 15.904 4.597 30.389-7.597 30.389-23.194s-14.485-27.79-30.389-23.193c-1.974.571-3.799 1.542-5.562 2.599-6.302 3.781-14.477 3.145-20.18-2.006-3.621-3.27-5.549-8.022-5.549-12.902v-51.314c0-3.75-3.04-6.791-6.791-6.791h-20.169c1.54 33.981-25.723 62.798-59.419 62.703-33.694.096-60.962-28.723-59.419-62.703h-24.699c-3.75 0-6.791 3.04-6.791 6.791v164.563c0 3.75 3.04 6.791 6.791 6.791h47.338c12.134-.278 20.662 12.317 16.092 23.337-6.474 15.363 5.259 33.622 21.822 33.353 16.559.269 28.299-17.992 21.821-33.353-4.562-11.037 3.94-23.596 16.091-23.336z"/><path d="m329.12 65.036h-49.405c-3.75 0-6.791 3.04-6.791 6.791v23.411c36.109-7.38 70.96 21.716 70.588 58.87.373 37.148-34.482 66.256-70.588 58.87v23.411c0 3.75 3.04 6.791 6.791 6.791h45.954c12.789-.264 21.262 13.493 15.499 24.656-8.796 16.808 3.775 38.297 22.667 38.047 18.818.246 31.397-21.088 22.744-37.892-5.85-11.268 2.573-24.93 15.096-24.811h41.749c3.75 0 6.791-3.04 6.791-6.791v-43.503c0-4.683 1.741-9.269 5.096-12.535 5.321-5.179 13.141-6.242 19.5-3.058 2.156 1.08 4.407 1.986 6.775 2.445 16.216 3.14 30.435-9.576 30.435-25.63s-14.219-28.77-30.436-25.63c-2.368.458-4.619 1.366-6.775 2.445-6.36 3.184-14.176 2.119-19.497-3.054-3.356-3.262-5.099-7.845-5.099-12.526v-43.516c0-3.75-3.04-6.791-6.791-6.791h-40.343c-13.286.228-21.751-14.223-15.073-25.568 10.109-16.92-2.24-39.629-21.907-39.456-19.664-.174-32.018 22.539-21.906 39.456 6.685 11.303-1.805 25.819-15.074 25.568z"/></g></svg>